<?xml version="1.0" encoding="UTF-8" standalone="no"?>
<!-- Created with Inkscape (http://www.inkscape.org/) -->

<svg
   version="1.1"
   id="svg12632"
   xml:space="preserve"
   width="530.66669"
   height="530.66669"
   viewBox="0 0 530.66669 530.66669"
   sodipodi:docname="koala-silhouette-color.svg"
   inkscape:version="1.1.2 (b8e25be833, 2022-02-05)"
   xmlns:inkscape="http://www.inkscape.org/namespaces/inkscape"
   xmlns:sodipodi="http://sodipodi.sourceforge.net/DTD/sodipodi-0.dtd"
   xmlns="http://www.w3.org/2000/svg"
   xmlns:svg="http://www.w3.org/2000/svg"><defs
     id="defs12636"><clipPath
       clipPathUnits="userSpaceOnUse"
       id="clipPath12646"><path
         d="M 0,398 H 398 V 0 H 0 Z"
         id="path12644" /></clipPath></defs><sodipodi:namedview
     id="namedview12634"
     pagecolor="#ffffff"
     bordercolor="#666666"
     borderopacity="1.0"
     inkscape:pageshadow="2"
     inkscape:pageopacity="0.0"
     inkscape:pagecheckerboard="0"
     showgrid="false"
     inkscape:zoom="1.5659547"
     inkscape:cx="265.33334"
     inkscape:cy="265.33334"
     inkscape:window-width="1920"
     inkscape:window-height="1018"
     inkscape:window-x="-8"
     inkscape:window-y="-8"
     inkscape:window-maximized="1"
     inkscape:current-layer="g12638" /><g
     id="g12638"
     inkscape:groupmode="layer"
     inkscape:label="koala-silhouette-color"
     transform="matrix(1.3333333,0,0,-1.3333333,0,530.66667)"><g
       id="g12640"><g
         id="g12642"
         clip-path="url(#clipPath12646)"><path
           d="m 140.09,54.338 c 0.84,-0.098 1.04,0.875 1.473,1.381 0.222,0.342 0.436,0.687 0.651,1.033 l -3.991,-0.813 c 0.344,-0.796 0.93,-1.591 1.867,-1.601"
           style="fill:#0051c6;fill-opacity:1;fill-rule:nonzero;stroke:none"
           id="path12648" /><path
           d="m 303.475,302.831 c 0.099,1.147 -0.94,2.027 -2.034,2.011 -1.871,0.036 -3.974,-0.102 -5.39,-1.485 -1.563,-1.447 -2.246,-3.419 -2.805,-5.426 l 7.701,-1.585 c 1.09,2.082 2.426,4.082 2.528,6.485"
           style="fill:#b4281c;fill-opacity:1;fill-rule:nonzero;stroke:none"
           id="path12650" /><path
           d="m 295.35,266.976 c 5.496,3.931 11.152,7.625 16.818,11.305 3.117,2.136 6.25,4.282 9.021,6.865 0.936,0.973 2.073,1.989 2.256,3.402 -0.695,1.742 -2.586,2.938 -4.459,2.824 -2.388,-0.057 -4.373,-1.542 -6.507,-2.423 -2.866,-1.229 -5.842,-2.471 -8.991,-2.609 -2.252,0.815 -4.172,2.987 -3.957,5.488 0.045,1.646 0.674,3.101 1.416,4.518 l -7.701,1.585 c -0.262,-0.937 -0.496,-1.884 -0.781,-2.787 -0.969,-2.882 -1.414,-6.04 -3.297,-8.528 -2.764,-3.832 -6.141,-7.164 -9.486,-10.484 -0.176,-0.167 -0.352,-0.334 -0.528,-0.5 l 4.545,-17.66 c 3.643,3.298 7.658,6.145 11.651,9.004"
           style="fill:#b28e76;fill-opacity:1;fill-rule:nonzero;stroke:none"
           id="path12652" /><path
           d="m 251.996,219.483 c 0.916,0.848 1.846,1.681 2.801,2.482 0.834,0.201 1.715,0.139 2.572,0.263 3.029,0.296 5.776,1.716 8.533,2.896 0.784,0.299 1.159,1.097 1.787,1.593 2.272,0.506 4.801,1.131 6.385,2.961 0.721,0.898 -0.191,1.802 -0.713,2.502 2.428,0.223 4.532,2.034 5.348,4.292 0.482,1.462 -0.85,2.517 -1.854,3.299 2.913,1.374 5.764,3.402 6.997,6.501 0.671,1.621 0.859,3.325 0.75,5.031 l -40.377,-20.096 z"
           style="fill:#6dc9cd;fill-opacity:1;fill-rule:nonzero;stroke:none"
           id="path12654" /><path
           d="m 262.393,310.884 c 0.865,1.106 1.56,2.344 2.033,3.679 1.078,2.964 1.291,6.146 1.734,9.248 0.592,5.719 1.072,11.611 -0.281,17.264 -0.676,2.205 -1.336,4.425 -1.842,6.677 l -33.758,-8.875 z"
           style="fill:#c32500;fill-opacity:1;fill-rule:nonzero;stroke:none"
           id="path12656" /><path
           d="m 264.037,347.752 c -0.359,1.607 -0.641,3.229 -0.789,4.874 -0.305,2.659 0.074,5.446 -0.998,7.963 -1.203,3.204 -4.025,5.489 -7.086,6.816 -3.07,1.444 -6.473,1.831 -9.787,2.357 -0.545,0.08 -1.094,0.152 -1.643,0.216 l -13.455,-31.101 z"
           style="fill:#c10600;fill-opacity:1;fill-rule:nonzero;stroke:none"
           id="path12658" /><path
           d="m 284.602,251.303 c -0.137,2.112 -0.729,4.225 -1.43,6.189 0.174,0.161 0.349,0.321 0.527,0.48 l -4.545,17.66 c -4.636,-4.404 -9.304,-8.816 -14.472,-12.599 -0.862,-0.474 -1.946,-1.651 -2.905,-0.75 -1.359,1.017 -3.076,1.491 -4.748,1.311 l -12.804,-32.387 z"
           style="fill:#abc38b;fill-opacity:1;fill-rule:nonzero;stroke:none"
           id="path12660" /><path
           d="m 243.734,369.978 c -5.478,0.634 -11.158,0.437 -16.338,-1.543 l 2.883,-29.558 z"
           style="fill:#c60800;fill-opacity:1;fill-rule:nonzero;stroke:none"
           id="path12662" /><path
           d="m 257.029,263.594 c -0.322,-0.034 -0.642,-0.09 -0.957,-0.174 -3.75,-0.887 -6.533,-3.707 -9.617,-5.82 -2.441,-1.659 -4.723,-3.632 -7.391,-4.926 -1.386,-0.278 -2.787,-0.471 -4.193,-0.619 l 9.354,-20.848 z"
           style="fill:#c8c46c;fill-opacity:1;fill-rule:nonzero;stroke:none"
           id="path12664" /><path
           d="m 218.295,288.995 c 0.185,0.106 0.385,0.2 0.598,0.282 2.142,0.851 4.892,0.335 6.205,-1.679 1.927,-2.892 2.093,-6.556 2.121,-9.931 -0.721,-1.107 -1.676,-2.167 -2.34,-3.345 l 3.908,-8.711 c 1.615,2.31 2.844,4.922 3.734,7.554 0.665,2.422 2.315,4.4 3.036,6.796 2.556,7.414 3.285,15.298 3.709,23.093 l -27.582,0.676 z"
           style="fill:#c8c46c;fill-opacity:1;fill-rule:nonzero;stroke:none"
           id="path12666" /><path
           d="m 236.885,204.48 c 2.955,3.276 6.054,6.424 9.269,9.44 1.955,1.84 3.867,3.739 5.842,5.563 l -7.771,11.724 z"
           style="fill:#169ee2;fill-opacity:1;fill-rule:nonzero;stroke:none"
           id="path12668" /><path
           d="m 211.684,303.73 27.582,-0.676 c 0.025,0.473 0.05,0.947 0.074,1.421 5.9,-0.336 12.101,-0.355 17.58,2.162 2.131,0.942 4.037,2.413 5.473,4.247 l -32.114,27.993 z"
           style="fill:#ce620a;fill-opacity:1;fill-rule:nonzero;stroke:none"
           id="path12670" /><path
           d="m 178.767,219.491 32.917,84.239 -54.115,-26.034 z"
           style="fill:#dae262;fill-opacity:1;fill-rule:nonzero;stroke:none"
           id="path12672" /><path
           d="m 178.767,219.491 43.219,-34.858 c 4.313,7.076 9.348,13.692 14.899,19.847 l 7.34,26.727 z"
           style="fill:#74e0e0;fill-opacity:1;fill-rule:nonzero;stroke:none"
           id="path12674" /><path
           d="m 224.088,271.504 c -0.106,-1.143 0.717,-2.858 -0.69,-3.476 -1.613,-0.5 -3.464,-0.342 -5.021,0.276 -1.996,1.164 -0.789,3.772 -1.266,5.599 -0.201,2.604 -2.593,4.641 -1.869,7.352 0.444,2.666 0.444,6.265 3.053,7.74 l -6.611,14.735 -32.917,-84.239 65.458,11.716 -9.354,20.848 c -2.656,-0.28 -5.334,-0.401 -7.99,-0.617 -3.233,-0.01 -6.645,-0.342 -9.701,0.933 -1.959,0.88 -1.244,3.464 -0.854,5.091 1.709,0.664 3.588,0.887 5.225,1.785 2.984,1.428 5.369,3.695 7.236,6.364 l -3.908,8.711 c -0.483,-0.855 -0.813,-1.773 -0.791,-2.818"
           style="fill:#afdf7b;fill-opacity:1;fill-rule:nonzero;stroke:none"
           id="path12676" /><path
           d="m 174.784,361.546 c -2.376,-0.461 -4.698,-1.169 -6.914,-2.222 -3.162,2.176 -6.031,4.726 -9.078,7.04 -2.745,1.941 -5.883,3.131 -9.14,3.861 l 1.036,-34.51 z"
           style="fill:#df2200;fill-opacity:1;fill-rule:nonzero;stroke:none"
           id="path12678" /><path
           d="m 185.75,118.766 c 4.507,4.859 8.839,9.884 12.921,15.109 4.905,6.35 9.327,13.066 13.448,19.943 3.451,5.897 6.793,11.963 8.67,18.575 0.649,2.47 1.184,5.269 0.397,7.74 l -72.73,14.812 z"
           style="fill:#14b4ec;fill-opacity:1;fill-rule:nonzero;stroke:none"
           id="path12680" /><path
           d="m 230.279,338.877 -2.883,29.558 c -0.31,-0.12 -0.621,-0.243 -0.929,-0.375 -6.385,-2.649 -12.553,-5.824 -19.028,-8.269 -0.476,-0.191 -0.986,-0.102 -1.466,-0.026 -5.807,1.051 -11.648,1.952 -17.532,2.419 -4.527,0.224 -9.189,0.23 -13.657,-0.638 l -24.096,-25.831 z"
           style="fill:#dc2b00;fill-opacity:1;fill-rule:nonzero;stroke:none"
           id="path12682" /><path
           d="m 230.279,338.877 -79.591,-3.162 60.996,-31.985 z"
           style="fill:#df5e00;fill-opacity:1;fill-rule:nonzero;stroke:none"
           id="path12684" /><path
           d="m 148.456,194.945 72.73,-14.812 c -0.192,0.603 -0.463,1.187 -0.831,1.746 0.53,0.926 1.075,1.844 1.631,2.754 l -43.219,34.858 z"
           style="fill:#67d7ef;fill-opacity:1;fill-rule:nonzero;stroke:none"
           id="path12686" /><path
           d="m 211.684,303.73 -60.996,31.985 6.881,-58.019 z"
           style="fill:#e88200;fill-opacity:1;fill-rule:nonzero;stroke:none"
           id="path12688" /><path
           d="m 129.488,235.112 49.279,-15.621 -21.198,58.205 z"
           style="fill:#dcf07c;fill-opacity:1;fill-rule:nonzero;stroke:none"
           id="path12690" /><path
           d="M 100.665,128.928 182.747,115.6 c 0.61,0.603 1.207,1.22 1.786,1.857 0.408,0.434 0.811,0.871 1.217,1.309 l -37.294,76.179 z"
           style="fill:#31bded;fill-opacity:1;fill-rule:nonzero;stroke:none"
           id="path12692" /><path
           d="m 122.889,58.098 c 1.761,1.693 3.22,3.634 4.66,5.59 L 115.485,53.436 c 2.852,0.744 5.323,2.619 7.404,4.662"
           style="fill:#0069d5;fill-opacity:1;fill-rule:nonzero;stroke:none"
           id="path12694" /><path
           d="m 151.854,82.063 c 0.172,0.935 0.375,1.869 0.609,2.796 L 136.48,71.277 c 1.687,-4.765 0.042,-10.14 1.6,-14.97 0.041,-0.121 0.089,-0.244 0.143,-0.368 l 3.991,0.813 c 4.802,7.713 7.979,16.387 9.64,25.311"
           style="fill:#0069d5;fill-opacity:1;fill-rule:nonzero;stroke:none"
           id="path12696" /><path
           d="m 162.231,102.268 c 1.284,1.158 2.506,2.494 4.07,3.246 3.741,0.138 6.946,2.291 9.873,4.418 2.3,1.757 4.518,3.629 6.573,5.668 l -82.082,13.328 1.961,-13.321 c 5.095,-0.709 10.376,-0.16 15.314,1.245 3.093,0.81 6.197,2.337 9.472,1.703 2.026,-0.35 3.492,-2.153 3.871,-4.106 0.587,-2.062 0.119,-4.209 0.22,-6.304 1.617,-1.993 4.559,-1.549 6.841,-1.786 -2.123,-3.556 -4.189,-7.148 -6.031,-10.861 -3.34,-6.639 -5.61,-13.93 -10.349,-19.771 -3.806,-5.321 -8.146,-10.36 -11.073,-16.241 l 0.929,-6.302 c 0.74,-0.086 1.5,-0.067 2.229,-0.022 0.489,0.057 0.967,0.151 1.436,0.274 l 12.064,10.252 c 1.195,1.621 2.378,3.253 3.71,4.767 1.365,1.518 2.729,3.301 4.832,3.777 0.146,-0.314 0.275,-0.634 0.389,-0.955 l 15.983,13.582 c 1.653,6.536 4.862,12.731 9.768,17.409"
           style="fill:#0181dd;fill-opacity:1;fill-rule:nonzero;stroke:none"
           id="path12698" /><path
           d="m 94.714,158.309 5.951,-29.381 47.791,66.017 z"
           style="fill:#8bebdb;fill-opacity:1;fill-rule:nonzero;stroke:none"
           id="path12700" /><path
           d="m 150.688,335.715 -23.803,-47.047 30.684,-10.972 z"
           style="fill:#f38900;fill-opacity:1;fill-rule:nonzero;stroke:none"
           id="path12702" /><path
           d="m 148.456,194.945 30.311,24.546 -49.279,15.621 z"
           style="fill:#b7f3bb;fill-opacity:1;fill-rule:nonzero;stroke:none"
           id="path12704" /><path
           d="m 134.284,370.875 c -3.249,-0.398 -6.484,-1.004 -9.72,-1.429 -3.029,-0.356 -6.033,-1.238 -8.646,-2.834 l 4.831,-39.637 z"
           style="fill:#ef3500;fill-opacity:1;fill-rule:nonzero;stroke:none"
           id="path12706" /><path
           d="m 150.688,335.715 -1.036,34.51 c -2.192,0.492 -4.436,0.777 -6.651,0.943 -2.922,0.251 -5.825,0.061 -8.717,-0.293 l -13.535,-43.9 z"
           style="fill:#f43800;fill-opacity:1;fill-rule:nonzero;stroke:none"
           id="path12708" /><path
           d="m 150.688,335.715 -29.939,-8.74 2.516,-15.71 c 0.856,-0.267 1.718,-0.513 2.59,-0.728 0.889,-0.302 2.091,-0.088 2.715,-0.92 0.086,-1.117 -0.73,-2.001 -1.39,-2.803 -0.865,-0.952 -1.804,-1.824 -2.776,-2.659 l 2.481,-15.487 z"
           style="fill:#f77700;fill-opacity:1;fill-rule:nonzero;stroke:none"
           id="path12710" /><path
           d="m 157.569,277.696 -30.684,10.972 2.603,-53.556 z"
           style="fill:#f2da4a;fill-opacity:1;fill-rule:nonzero;stroke:none"
           id="path12712" /><path
           d="m 115.918,366.612 c -0.426,-0.26 -0.843,-0.538 -1.246,-0.837 -5.024,-3.591 -8.198,-9.129 -10.561,-14.713 -2.632,-5.324 -4.772,-11.14 -4.775,-17.137 l 21.413,-6.95 z"
           style="fill:#fb6100;fill-opacity:1;fill-rule:nonzero;stroke:none"
           id="path12714" /><path
           d="M 129.488,235.112 72.212,216.33 148.456,194.945 Z"
           style="fill:#d8f890;fill-opacity:1;fill-rule:nonzero;stroke:none"
           id="path12716" /><path
           d="M 148.456,194.945 72.212,216.33 94.714,158.309 Z"
           style="fill:#c5f5c1;fill-opacity:1;fill-rule:nonzero;stroke:none"
           id="path12718" /><path
           d="m 92.854,118.742 c 0.908,-0.471 1.84,-0.9 2.799,-1.277 2.248,-0.924 4.591,-1.527 6.973,-1.858 l -1.961,13.321 z"
           style="fill:#6cb0c4;fill-opacity:1;fill-rule:nonzero;stroke:none"
           id="path12720" /><path
           d="m 110.239,58.107 c -0.493,-1.336 -1.271,-2.99 -0.407,-4.334 0.614,-0.335 1.292,-0.509 1.988,-0.589 l -0.929,6.302 c -0.226,-0.455 -0.444,-0.914 -0.652,-1.379"
           style="fill:#6cb0c4;fill-opacity:1;fill-rule:nonzero;stroke:none"
           id="path12722" /><path
           d="m 126.885,288.668 -16.697,2.998 c -7.26,-7.039 -14.007,-14.607 -20.312,-22.511 -6.654,-8.338 -12.85,-17.087 -17.923,-26.482 -1.446,-2.986 -2.675,-6.066 -3.718,-9.208 l 3.977,-17.135 z"
           style="fill:#ffd100;fill-opacity:1;fill-rule:nonzero;stroke:none"
           id="path12724" /><path
           d="M 126.885,288.668 72.212,216.33 129.488,235.112 Z"
           style="fill:#f9ed2d;fill-opacity:1;fill-rule:nonzero;stroke:none"
           id="path12726" /><path
           d="m 124.404,304.155 c -1.802,-1.548 -3.722,-2.969 -5.511,-4.532 -2.983,-2.563 -5.881,-5.222 -8.705,-7.957 l 16.697,-2.998 z"
           style="fill:#fd9d00;fill-opacity:1;fill-rule:nonzero;stroke:none"
           id="path12728" /><path
           d="m 104.098,320.913 c 2.182,-2.066 4.842,-3.655 7.514,-4.976 3.829,-1.676 7.659,-3.426 11.653,-4.672 l -2.516,15.71 z"
           style="fill:#fd9d00;fill-opacity:1;fill-rule:nonzero;stroke:none"
           id="path12730" /><path
           d="m 99.336,333.925 c 0,-0.592 0.019,-1.185 0.062,-1.779 0.297,-2.655 0.387,-5.488 1.878,-7.809 0.786,-1.275 1.747,-2.407 2.822,-3.424 l 16.651,6.062 z"
           style="fill:#ff9300;fill-opacity:1;fill-rule:nonzero;stroke:none"
           id="path12732" /><path
           d="M 72.212,216.33 66.448,162.4 94.714,158.309 Z"
           style="fill:#cbf387;fill-opacity:1;fill-rule:nonzero;stroke:none"
           id="path12734" /><path
           d="m 83.184,126.199 c 2.82,-2.976 6.042,-5.57 9.67,-7.457 l 7.811,10.186 z"
           style="fill:#8bcfa3;fill-opacity:1;fill-rule:nonzero;stroke:none"
           id="path12736" /><path
           d="m 66.448,162.4 34.217,-33.472 -5.951,29.381 z"
           style="fill:#96eaa2;fill-opacity:1;fill-rule:nonzero;stroke:none"
           id="path12738" /><path
           d="m 66.448,162.4 -0.316,-1.293 c 0.619,-2.794 1.346,-5.566 2.2,-8.3 2.371,-7.563 5.731,-14.875 10.462,-21.264 1.337,-1.863 2.801,-3.664 4.39,-5.344 l 17.481,2.729 z"
           style="fill:#9ae292;fill-opacity:1;fill-rule:nonzero;stroke:none"
           id="path12740" /><path
           d="m 68.235,233.465 c -1.62,-4.882 -2.789,-9.918 -3.618,-15.001 l 7.595,-2.134 z"
           style="fill:#ffce00;fill-opacity:1;fill-rule:nonzero;stroke:none"
           id="path12742" /><path
           d="m 65.646,163.406 c 0.066,-0.326 0.136,-0.656 0.204,-0.984 l 0.598,-0.022 z"
           style="fill:#f0d03c;fill-opacity:1;fill-rule:nonzero;stroke:none"
           id="path12744" /><path
           d="m 72.212,216.33 -7.595,2.134 c -0.334,-2.048 -0.615,-4.104 -0.846,-6.161 -1.136,-10.383 -1.082,-20.862 -0.434,-31.272 0.425,-5.904 1.145,-11.81 2.309,-17.625 l 0.802,-1.006 z"
           style="fill:#f6e63a;fill-opacity:1;fill-rule:nonzero;stroke:none"
           id="path12746" /><path
           d="m 65.85,162.422 c 0.091,-0.438 0.185,-0.877 0.282,-1.315 l 0.316,1.293 z"
           style="fill:#c7df6f;fill-opacity:1;fill-rule:nonzero;stroke:none"
           id="path12748" /></g></g></g></svg>
