<?xml version="1.0" encoding="UTF-8" standalone="no"?>
<svg xmlns="http://www.w3.org/2000/svg" id="svg" data-is-meta="true" style="position: absolute; top: 0px; left: 0px; width: 401.979px; height: 401.979px; border: none; opacity: 1; touch-action: none;" width="401.979" height="401.979"><path stroke="black" stroke-width="null" fill="none" d="M185.19444,66.86108c0,-4.11683 -14.6346,-4 -18,-4c-1.33333,0 -2.66667,0 -4,0c-1.66667,0 -3.37302,-0.36155 -5,0c-8.29606,1.84357 -17.72596,7.42308 -24,13c-1.24568,1.10727 -1.68441,2.97677 -3,4c-1.76505,1.37281 -4.23495,1.62719 -6,3c-5.00364,3.89172 -5.51043,10.53824 -7,16c-1.64248,6.02243 -4,10.56709 -4,17c0,7.63173 1.6206,18.68384 8,24c0.80978,0.67481 2.07856,0.48809 3,1c10.55626,5.86459 19.79376,12.71133 32,15c6.55248,1.22859 13.33333,0 20,0c2.66667,0 5.42337,0.6871 8,0c2.59668,-0.69245 4.55993,-2.87381 7,-4c5.56034,-2.56631 10.15534,-3.59952 13,-10c1.48917,-3.35064 0,-7.33333 0,-11c0,-5 0.70711,-10.05025 0,-15c-0.62893,-4.40252 -2.59737,-8.57104 -3,-13c-0.59467,-6.54133 -0.23741,-13.81293 1,-20c0.32686,-1.6343 -0.74536,-3.50929 0,-5c0.42164,-0.84327 1.64985,-1.12462 2,-2c1.0905,-2.72626 -0.77139,-7.51426 -3,-9c-0.5547,-0.3698 -1.40372,0.29814 -2,0c-0.84327,-0.42164 -1.15673,-1.57836 -2,-2c-3.03057,-1.51528 -6.75735,-1 -10,-1c-6.33333,0 -12.66667,0 -19,0"></path><path stroke="black" stroke-width="null" fill="none" d="M189.19444,177.86108c-2.30941,0 -7.04387,-0.97806 -9,0c-9.57436,4.78718 -18.22707,13.11353 -28,18c-2.17051,1.08525 -4.93328,0.72817 -7,2c-3.25,2 -5.875,6.5 -9,9c-2.69296,2.15436 -8.81372,5.56441 -11,9c-6.78395,10.6605 -10.8572,25.46411 -7,38c1.1177,3.63252 4.47503,6.15941 7,9c1.59693,1.79655 2.41715,4.19103 4,6c3.95822,4.52368 10.45258,7.15086 16,9c8.9173,2.97243 16.59274,4 26,4c11.19555,0 25.28729,1.82597 36,-2c8.33277,-2.97599 18.43505,-10.61029 20,-20c0.98724,-5.92345 0,-13.94541 0,-20c0,-3.68239 -1.01581,-9.44466 0,-13c0.75514,-2.64298 2.24886,-5.26255 2,-8c-0.63317,-6.96484 -2.87605,-14.5014 -7,-20c-0.13278,-0.17704 -3.86722,-2.82296 -4,-3c-1.44222,-1.92296 -2.30033,-4.30033 -4,-6c-2.03137,-2.03137 -9.93396,-5.20537 -12,-6c-10.85769,-4.17603 -22.83705,-4.65112 -34,-8"></path><path stroke="black" stroke-width="null" fill="none" d="M149.19444,268.86108c0,0.59763 -1,2 -1,2c0,0 2.15016,-1.15016 3,-2c1.58114,-1.58114 1.70031,-4.18044 3,-6c5.02153,-7.03014 10.43632,-14.15448 15,-21c0.3698,-0.5547 1.70186,0.59628 2,0c0.29814,-0.59628 -0.5547,-1.6302 0,-2c0.83205,-0.5547 2.16795,0.5547 3,0c0.5547,-0.3698 -0.4714,-1.5286 0,-2c1.70508,-1.70508 8.99401,-3.27055 11,-4c9.65262,-3.51005 19.42712,-6.31812 29,-10c8.31447,-3.19787 18.08238,-5.18931 27,-6c2.32375,-0.21125 5.35008,-1.64992 7,0c1.17851,1.17851 2.59577,2.3831 3,4c0.60124,2.40495 -0.89535,3.10465 1,5c1.17851,1.17851 2.82149,1.82149 4,3c1.58114,1.58114 1.65836,4.21115 3,6c0.30441,0.40589 10.03935,6.01968 4,3"></path><path stroke="black" stroke-width="null" fill="none" d="M167.19444,158.86108c0,-1 0.70711,-2.29289 0,-3c-0.4714,-0.4714 -1.5286,0.4714 -2,0c-0.77205,-0.77205 0,-8.04914 0,-9c0,-1 -0.37139,-2.07152 0,-3c0.61898,-1.54746 2.82149,-1.82149 4,-3c2.7963,-2.7963 1.45667,-4.24408 5,-7c1.76505,-1.37281 4.31719,-1.52754 6,-3c1.12188,-0.98164 1.08479,-2.8233 2,-4c1.95494,-2.5135 7.18935,-9.12623 10,-11c1.02683,-0.68455 4.58697,0 6,0"></path><path stroke="black" stroke-width="null" fill="none" d="M290.19676,126.86108c0.33333,0 0.66667,0 1,0"></path><path stroke="black" stroke-width="null" fill="none" d="M34.96295,129.95369c0,13.56908 3.36289,26.81447 6,40c0.75935,3.79675 2.84214,8.12285 5,11c0.17229,0.22971 2.51356,4.97288 3,4c2.55212,-5.10424 3,-11.44201 3,-17"></path><path stroke="black" stroke-width="null" fill="none" d="M52.96295,80.95369c0,3.11004 -0.93001,8.20997 0,11c0.29814,0.89443 1.64985,1.12462 2,2c1.13511,2.83777 -0.66857,6.99143 0,10c0.45733,2.05798 1.48869,3.95476 2,6c2.18781,8.75123 1.40728,15.27483 5,24c7.5377,18.30584 16.74845,36.35315 24,55c3.27828,8.42986 2.84487,17.33653 4,26c0.65492,4.91189 3.79815,9.1926 5,14c1.27739,5.10955 -1.87789,8.12211 2,12"></path></svg>