
<svg xmlns="http://www.w3.org/2000/svg"
   
    width="800px" height="600px"
>
<path stroke="black" stroke-width="null" fill="none" d="M182,93.46875c-7.05855,-14.11709 -24.01783,-13 -38,-13c-19.20714,0 -34.37488,9.58325 -50,20c-4.34264,2.89509 -11.21723,6.13015 -14,11c-1.73333,3.03332 -0.60229,4.81835 -1,8c-1.01159,8.09271 -2.19333,16.01667 1,24c0.35015,0.87538 1.53224,1.18141 2,2c4.29148,7.51008 7.61669,17.80835 16,22c8.76015,4.38007 18.5084,4 28,4c7.28659,0 14.72766,0.42778 22,0c6.05307,-0.35606 12.23286,-0.94031 18,-3c2.1058,-0.75207 3.85824,-2.35747 6,-3c1.2771,-0.38313 2.75156,0.46816 4,0c0.93447,-0.35043 6.12772,-4.25545 7,-6c1.31618,-2.63235 -0.35224,-8.18208 0,-11c1.1899,-9.5192 2,-19.44331 2,-29c0,-4.05094 0.234,-9.532 -1,-12c-1.21093,-2.42186 -3.6293,-10 -7,-10"></path><path stroke="black" stroke-width="null" fill="none" d="M304,76.46875c-3.11849,0 -7.03982,-0.65782 -10,0c-3.80866,0.84637 -7.18504,3.18251 -11,4c-6.00993,1.28784 -12.16905,2.05635 -18,4c-26.66136,8.88712 -47.49069,30.32317 -49,59c-0.31535,5.99171 0,12 0,18c0,5 -1.04765,10.11099 0,15c0.97029,4.52802 4.54567,8.07308 7,12c1.24922,1.99875 2.76393,4.25464 5,5c1.89737,0.63246 4.05971,-0.48507 6,0c1.4462,0.36155 2.53824,1.70765 4,2c5.64349,1.1287 14.44396,0 20,0c3.66667,0 7.44281,0.8893 11,0c12.28331,-3.07083 24.91636,-11.7974 35,-19c5.26662,-3.76187 11.42349,-6.42349 16,-11c9.41745,-9.41745 13,-20.27905 13,-33c0,-3 0.80293,-6.10945 0,-9c-0.91852,-3.30667 -3.34611,-5.99294 -5,-9c-7.02643,-12.77533 -14.55673,-25.08009 -23,-37c-5.20572,-7.34926 -11.65755,-13.74953 -17,-21c-3.40095,-4.61557 -7.37412,-16 -13,-16"></path><path stroke="black" stroke-width="null" fill="none" d="M157,133.46875c-5.02881,0 -10.33628,1.13451 -15,3c-3.08473,1.23389 -6.54106,4.08212 -8,7c-1.48558,2.97115 -0.6284,13.3716 2,16c1.58114,1.58114 4.10382,1.81489 6,3c5.32269,3.32668 12.9991,8.75022 20,7c1.02262,-0.25565 2.41529,-0.12294 3,-1c0.94281,-1.41421 0.29667,-3.45267 1,-5c0.99466,-2.18825 2.66667,-4 4,-6c2.51515,-3.77273 2.43691,-3.84306 6,-8c2.32168,-2.70863 5.15951,-6.15951 7,-8c0.94281,-0.94281 0,-2.66667 0,-4c0,-5.87443 -0.81829,-8 -7,-8"></path><path stroke="black" stroke-width="null" fill="none" d="M222,149.46875c0,14.92219 -5.2642,29.38354 1,44c3.06181,7.14423 4.99879,14.4998 14,16c4.93197,0.82199 10.02481,0.49752 15,0c11.48115,-1.14812 13.22549,-1.20044 22,-9c5.81615,-5.16991 10.87569,-11.14364 16,-17c8.06105,-9.21263 8.73758,-18.63826 10,-30c0.33333,-3 3.13437,-6.86563 1,-9c-2.21103,-2.21103 -11.63639,2.84417 -12,3"></path><path stroke="black" stroke-width="null" fill="none" d="M55,219.46875c1,0 2.10557,-0.44721 3,0c1.49071,0.74536 1.69855,2.95884 3,4c6.02497,4.81998 11.1406,10.04204 17,15c12.45193,10.53625 27.70576,20.20314 42,28c15.31476,8.3535 30.72659,14.80061 47,21c18.227,6.94362 27.4857,12.07286 47,15c11.90837,1.78626 24.06251,1.42004 36,3c10.75872,1.42395 21.19792,4.95464 32,6c9.9535,0.96324 20.01432,0.53495 30,0c11.99402,-0.64254 30.19879,-2.31793 42,-8c4.08498,-1.96684 7.35401,-5.30514 11,-8c8.37926,-6.19337 14.72803,-9.17446 19,-19c4.04934,-9.31349 3,-17.19273 3,-27c0,-6.00925 0.17851,-12.10744 -1,-18"></path></svg>