<svg id="Capa_1" enable-background="new 0 0 512 512" height="512" viewBox="0 0 512 512" width="512" xmlns="http://www.w3.org/2000/svg"><g><path d="m225.001 357h-5.001v-50c0-8.284-6.716-15-15-15h-65c-8.284 0-15 6.716-15 15v18.303c0 8.786-6.357 16.267-14.171 16.676-4.172.229-8.139-1.235-11.151-4.095-3.017-2.863-4.678-6.729-4.678-10.884v-20c0-8.284-6.716-15-15-15h-65c-8.284 0-15 6.716-15 15v150c0 30.327 24.673 55 55 55h150c8.284 0 15-6.716 15-15v-50h5c24.813 0 45-20.187 45-45s-20.187-45-44.999-45zm-.001 60h-20c-8.284 0-15 6.716-15 15v50h-135c-13.785 0-25-11.215-25-25v-135h35v5c0 12.286 5.112 24.185 14.026 32.644 9.041 8.582 20.894 12.951 33.371 12.294 23.89-1.251 42.603-21.735 42.603-46.635v-3.303h35v50c0 8.284 6.716 15 15 15h20.001c8.271 0 14.999 6.729 14.999 15s-6.729 15-15 15z"/><path d="m512 55c0-30.327-24.673-55-55-55h-150-150c-30.327 0-55 24.673-55 55.001l.001 149.999c0 8.284 6.716 15 15 15h49.999v5c0 24.813 20.188 45 45.001 45 24.812 0 44.999-20.187 44.999-44.999v-5.001h34.999l.001 50c0 8.284 6.716 15 15 15h18.303c8.786 0 16.267 6.357 16.676 14.171.219 4.179-1.235 8.139-4.095 11.151-2.863 3.017-6.728 4.678-10.884 4.678h-20c-8.284 0-15 6.716-15 15v65c0 8.284 6.716 15 15 15h150c30.327 0 55-24.673 55-55zm-190 25v-50h135c13.785 0 25 11.215 25 25v135h-35v-5c0-12.286-5.112-24.185-14.026-32.644-9.042-8.582-20.906-12.947-33.371-12.294-23.89 1.251-42.603 21.736-42.603 46.635v3.303h-34.999l-.001-50c0-8.284-6.716-15-15-15h-18.303c-8.786 0-16.267-6.357-16.676-14.171-.219-4.178 1.235-8.139 4.095-11.151 2.863-3.017 6.729-4.678 10.884-4.678h20c8.284 0 15-6.716 15-15zm-80 110c-8.284 0-15 6.716-15 15v20.001c0 8.271-6.729 14.999-15 14.999s-15-6.729-15-15v-20c0-8.284-6.716-15-15-15h-49.999l-.001-134.999c0-13.785 11.215-25.001 25-25.001h135v35h-5c-12.286 0-24.185 5.112-32.644 14.026-8.581 9.041-12.947 20.893-12.294 33.371 1.251 23.89 21.735 42.603 46.635 42.603h3.303l.001 35zm215 190h-135v-35h5c12.286 0 24.185-5.112 32.645-14.026 8.58-9.041 12.946-20.893 12.293-33.371-1.251-23.89-21.736-42.603-46.635-42.603h-3.303l-.001-35h50.001c8.284 0 15-6.716 15-15v-18.303c0-8.786 6.357-16.267 14.171-16.676 4.175-.212 8.14 1.236 11.151 4.095 3.017 2.863 4.678 6.729 4.678 10.884v20c0 8.284 6.716 15 15 15h49.999l.001 135c0 13.785-11.215 25-25 25z"/></g></svg>