<svg xmlns="http://www.w3.org/2000/svg" id="svg" data-is-meta="true" style="position: absolute; top: 0px; left: 0px; width: 402px; height: 402px; border: none; opacity: 1; touch-action: none;"><path stroke="black" stroke-width="null" fill="none" d="M176.99376,176c0,-5.22305 2.45457,-10.5455 5,-15c9.05536,-15.84689 29.35831,8.71661 34,18c8.14794,16.29589 9,32.78625 9,51c0,4.90041 1.92041,14.51904 0,19c-7.28399,16.99598 -20.99945,29.99963 -36,40c-9.07922,6.05281 -16.326,12.66771 -28,11c-19.3584,-2.76549 -18.83257,-28.84629 -18,-43c1.20501,-20.48519 5.4432,-62.4432 22,-79c7.64634,-7.64634 23.5591,-6.57348 33,-5c33.05512,5.50919 101.24727,7.92999 82,-45c-3.50556,-9.64028 -11.70674,-16.39845 -17,-25c-6.31799,-10.26674 -12.32474,-21.32796 -23,-28c-32.07965,-20.04978 -69.43707,22.94048 -65,54c1.46017,10.22122 11.23602,17.23602 18,24c3.80277,3.80277 6.79537,8.6363 11,12c7.35034,5.88027 36.76755,20.88377 47,26c2.95786,1.47893 8.17788,-1 11,-1"></path><path stroke="black" stroke-width="null" fill="none" d="M172.39375,64.8c0.33333,0.33333 0.66667,0.66667 1,1"></path><path stroke="black" stroke-width="null" fill="none" d="M160.99375,36.8c0.33333,0.33333 0.66667,0.66667 1,1"></path></svg>