<svg xmlns="http://www.w3.org/2000/svg" height="139pt" version="1.1" viewBox="-1 0 139 139.7983" width="139pt">
<g id="surface1">
<path d="M 53.457031 18.234375 C 34.21875 18.234375 18.621094 33.832031 18.621094 53.074219 C 18.621094 72.3125 34.21875 87.910156 53.457031 87.910156 C 72.691406 87.910156 88.289062 72.3125 88.289062 53.074219 C 88.289062 53.074219 88.289062 53.066406 88.289062 53.0625 C 88.25 33.84375 72.675781 18.273438 53.457031 18.234375 Z M 53.457031 84.160156 C 36.28125 84.160156 22.355469 70.234375 22.355469 53.0625 C 22.355469 35.886719 36.28125 21.964844 53.457031 21.964844 C 70.628906 21.964844 84.554688 35.886719 84.554688 53.0625 C 84.519531 70.222656 70.613281 84.125 53.457031 84.160156 Z M 53.457031 84.160156 " style=" stroke:none;fill-rule:nonzero;fill:rgb(0%,0%,0%);fill-opacity:1;" />
<path d="M 97.601562 82.351562 C 113.800781 57.953125 107.148438 25.046875 82.75 8.855469 C 58.355469 -7.34375 25.449219 -0.691406 9.253906 23.699219 C -6.945312 48.097656 -0.292969 81.007812 24.105469 97.203125 C 40.59375 108.148438 61.8125 109 79.132812 99.402344 L 115.8125 135.875 C 120.582031 140.910156 128.535156 141.128906 133.574219 136.355469 C 138.613281 131.585938 138.828125 123.636719 134.058594 118.59375 C 133.902344 118.429688 133.742188 118.265625 133.574219 118.109375 Z M 53.464844 102.292969 C 26.265625 102.304688 4.203125 80.253906 4.195312 53.046875 C 4.191406 25.847656 26.238281 3.789062 53.441406 3.777344 C 80.644531 3.773438 102.707031 25.820312 102.710938 53.023438 C 102.710938 53.039062 102.710938 53.046875 102.710938 53.0625 C 102.683594 80.253906 80.648438 102.292969 53.457031 102.316406 Z M 130.941406 133.207031 C 127.496094 136.632812 121.929688 136.632812 118.480469 133.207031 L 82.417969 97.410156 C 87.378906 94.160156 91.757812 90.105469 95.382812 85.417969 L 130.933594 120.753906 C 134.375 124.199219 134.375 129.785156 130.933594 133.230469 Z M 130.941406 133.207031 " style=" stroke:none;fill-rule:nonzero;fill:rgb(0%,0%,0%);fill-opacity:1;" />
</g>
</svg>